<?xml version="1.0" encoding="iso-8859-1"?>
<!-- Generator: Adobe Illustrator 16.0.0, SVG Export Plug-In . SVG Version: 6.00 Build 0)  -->
<!DOCTYPE svg PUBLIC "-//W3C//DTD SVG 1.1//EN" "http://www.w3.org/Graphics/SVG/1.1/DTD/svg11.dtd">
<svg version="1.1" id="Layer_1" xmlns="http://www.w3.org/2000/svg" xmlns:xlink="http://www.w3.org/1999/xlink" x="0px" y="0px"
	 width="208px" height="195.5px" viewBox="0 0 208 195.5" style="enable-background:new 0 0 208 195.5;" xml:space="preserve">
<g>
	<g>
		<g>
			<radialGradient id="SVGID_1_" cx="170.3516" cy="139.3252" r="29.3174" gradientUnits="userSpaceOnUse">
				<stop  offset="0" style="stop-color:#707070"/>
				<stop  offset="0.0617" style="stop-color:#7E7E7E;stop-opacity:0.9383"/>
				<stop  offset="0.2804" style="stop-color:#ACACAC;stop-opacity:0.7196"/>
				<stop  offset="0.49" style="stop-color:#D0D0D0;stop-opacity:0.51"/>
				<stop  offset="0.6852" style="stop-color:#EAEAEA;stop-opacity:0.3148"/>
				<stop  offset="0.8609" style="stop-color:#FAFAFA;stop-opacity:0.1391"/>
				<stop  offset="1" style="stop-color:#FFFFFF;stop-opacity:0"/>
			</radialGradient>
			<circle style="fill:url(#SVGID_1_);" cx="170.351" cy="139.325" r="29.318"/>
			<g>
				<g>
					<g>
						<path style="fill:#F0F0F0;" d="M180.09,115.84c0,0.175-2.228,0.317-4.976,0.317s-4.976-0.143-4.976-0.317v-1.682
							c0-0.175,2.228-0.317,4.976-0.317s4.976,0.143,4.976,0.317V115.84z"/>
						<ellipse style="fill:#F0F0F0;" cx="175.114" cy="114.158" rx="4.976" ry="0.317"/>
					</g>
					<g>
						<path style="fill:#F0F0F0;" d="M179.514,113.988c0,0.176-1.97,0.317-4.399,0.317s-4.399-0.142-4.399-0.317v-1.269
							c0-0.176,1.97-0.317,4.399-0.317s4.399,0.142,4.399,0.317V113.988z"/>
						<ellipse style="fill:#F0F0F0;" cx="175.114" cy="112.72" rx="4.399" ry="0.316"/>
					</g>
					<g>
						<path style="fill:#F0F0F0;" d="M178.853,112.634c0,0.149-1.673,0.271-3.738,0.271s-3.738-0.122-3.738-0.271v-0.853
							c0-0.15,1.673-0.272,3.738-0.272s3.738,0.122,3.738,0.272V112.634z"/>
						<ellipse style="fill:#F0F0F0;" cx="175.114" cy="111.781" rx="3.738" ry="0.271"/>
					</g>
					<g>
						<path style="fill:#F0F0F0;" d="M175.113,111.924c-1.163,0-2.109-0.947-2.109-2.111s0.946-2.111,2.109-2.111
							c1.164,0,2.111,0.947,2.111,2.111S176.277,111.924,175.113,111.924z M175.113,108.33c-0.816,0-1.481,0.665-1.481,1.482
							s0.665,1.482,1.481,1.482c0.818,0,1.483-0.665,1.483-1.482S175.932,108.33,175.113,108.33z"/>
					</g>
				</g>
				<circle style="fill:#D41E1E;" cx="175.114" cy="135.265" r="20.244"/>
				<circle style="fill:#F0F0F0;" cx="175.114" cy="135.265" r="18.936"/>
				<circle style="fill:#D41E1E;" cx="175.114" cy="135.265" r="16.004"/>
				<g>
					<path style="fill:#F0F0F0;" d="M186.357,137.523c-0.764,0-1.437,0.409-1.803,1.011l-0.852-0.323
						c0.016-0.028,0.016-0.044,0.016-0.073c0-0.776-0.614-1.407-1.393-1.407c-0.439,0-0.822,0.205-1.084,0.514l-5.117-1.979
						l5.117-1.98c0.262,0.309,0.645,0.514,1.084,0.514c0.778,0,1.393-0.63,1.393-1.406c0-0.029,0-0.045-0.016-0.074l0.852-0.322
						c0.366,0.601,1.039,1.012,1.803,1.012c1.173,0,2.14-0.968,2.14-2.141c0-1.172-0.967-2.141-2.14-2.141
						c-1.187,0-2.141,0.969-2.141,2.141c0,0.161,0.016,0.308,0.06,0.455l-0.776,0.293c-0.25-0.382-0.675-0.631-1.174-0.631
						c-0.776,0-1.406,0.631-1.406,1.408c0,0.072,0,0.146,0.029,0.219l-5.205,2.023l2.023-5.204c0.073,0.029,0.146,0.029,0.22,0.029
						c0.777,0,1.406-0.631,1.406-1.407c0-0.497-0.247-0.924-0.629-1.187l0.293-0.763c0.146,0.044,0.292,0.058,0.454,0.058
						c1.172,0,2.141-0.951,2.141-2.139c0-1.174-0.969-2.127-2.141-2.127c-1.173,0-2.141,0.953-2.141,2.127
						c0,0.762,0.411,1.437,1.011,1.803l-0.321,0.836c-0.028-0.015-0.045-0.015-0.073-0.015c-0.776,0-1.407,0.629-1.407,1.406
						c0,0.44,0.205,0.821,0.514,1.085l-1.979,5.116l-1.98-5.116c0.309-0.264,0.514-0.645,0.514-1.085
						c0-0.777-0.631-1.406-1.406-1.406c-0.029,0-0.046,0-0.073,0.015l-0.324-0.836c0.603-0.366,1.013-1.041,1.013-1.803
						c0-1.174-0.968-2.127-2.141-2.127s-2.14,0.953-2.14,2.127c0,1.188,0.967,2.139,2.14,2.139c0.162,0,0.309-0.014,0.455-0.058
						l0.293,0.763c-0.383,0.263-0.63,0.689-0.63,1.187c0,0.776,0.63,1.407,1.407,1.407c0.072,0,0.146,0,0.219-0.029l2.021,5.204
						l-5.202-2.023c0.03-0.073,0.03-0.146,0.03-0.219c0-0.777-0.632-1.408-1.408-1.408c-0.497,0-0.924,0.249-1.174,0.631
						l-0.775-0.293c0.044-0.147,0.059-0.294,0.059-0.455c0-1.172-0.952-2.141-2.14-2.141c-1.173,0-2.141,0.969-2.141,2.141
						c0,1.173,0.968,2.141,2.141,2.141c0.763,0,1.436-0.411,1.802-1.012l0.851,0.322c-0.015,0.029-0.015,0.045-0.015,0.074
						c0,0.776,0.615,1.406,1.393,1.406c0.439,0,0.82-0.205,1.085-0.514l5.116,1.98l-5.116,1.979
						c-0.265-0.309-0.646-0.514-1.085-0.514c-0.777,0-1.393,0.631-1.393,1.407c0,0.029,0,0.045,0.015,0.073l-0.851,0.323
						c-0.366-0.602-1.039-1.011-1.802-1.011c-1.173,0-2.141,0.967-2.141,2.139c0,1.173,0.968,2.142,2.141,2.142
						c1.188,0,2.14-0.969,2.14-2.142c0-0.16-0.015-0.307-0.059-0.454l0.775-0.293c0.25,0.381,0.677,0.63,1.174,0.63
						c0.776,0,1.408-0.63,1.408-1.407c0-0.072,0-0.146-0.03-0.219l5.202-2.023l-2.021,5.204c-0.072-0.03-0.146-0.03-0.219-0.03
						c-0.777,0-1.407,0.631-1.407,1.407c0,0.499,0.247,0.924,0.63,1.188l-0.293,0.763c-0.146-0.044-0.293-0.059-0.455-0.059
						c-1.173,0-2.14,0.953-2.14,2.14c0,1.173,0.967,2.126,2.14,2.126s2.141-0.953,2.141-2.126c0-0.762-0.41-1.437-1.013-1.803
						l0.324-0.836c0.027,0.015,0.044,0.015,0.073,0.015c0.775,0,1.406-0.63,1.406-1.407c0-0.439-0.205-0.82-0.514-1.084l1.98-5.116
						l1.979,5.116c-0.309,0.264-0.514,0.645-0.514,1.084c0,0.777,0.631,1.407,1.407,1.407c0.028,0,0.045,0,0.073-0.015l0.321,0.836
						c-0.6,0.366-1.011,1.041-1.011,1.803c0,1.173,0.968,2.126,2.141,2.126c1.172,0,2.141-0.953,2.141-2.126
						c0-1.187-0.969-2.14-2.141-2.14c-0.162,0-0.308,0.015-0.454,0.059l-0.293-0.763c0.382-0.264,0.629-0.688,0.629-1.188
						c0-0.776-0.629-1.407-1.406-1.407c-0.073,0-0.146,0-0.22,0.03l-2.023-5.204l5.205,2.023c-0.029,0.073-0.029,0.146-0.029,0.219
						c0,0.777,0.63,1.407,1.406,1.407c0.499,0,0.924-0.249,1.174-0.63l0.776,0.293c-0.044,0.147-0.06,0.294-0.06,0.454
						c0,1.173,0.954,2.142,2.141,2.142c1.173,0,2.14-0.969,2.14-2.142C188.497,138.49,187.53,137.523,186.357,137.523
						 M186.357,129.46c0.777,0,1.407,0.631,1.407,1.407s-0.63,1.407-1.407,1.407c-0.454,0-0.851-0.205-1.114-0.542
						c-0.146-0.191-0.249-0.425-0.278-0.688c-0.016-0.06-0.016-0.117-0.016-0.177C184.949,130.091,185.58,129.46,186.357,129.46
						 M181.667,132.333c0.016-0.337,0.293-0.615,0.659-0.615c0.177,0,0.322,0.073,0.439,0.189c0.133,0.104,0.221,0.294,0.221,0.485
						c0,0.088-0.016,0.146-0.045,0.219v0.016c-0.088,0.249-0.337,0.44-0.615,0.44c-0.117,0-0.221-0.031-0.308-0.089
						c-0.22-0.103-0.366-0.322-0.366-0.586C181.652,132.378,181.652,132.348,181.667,132.333 M178.104,124.022
						c0-0.778,0.631-1.394,1.407-1.394c0.777,0,1.408,0.615,1.408,1.394c0,0.776-0.631,1.406-1.408,1.406
						c-0.059,0-0.118,0-0.176-0.014c-0.264-0.03-0.498-0.133-0.688-0.279C178.311,124.872,178.104,124.477,178.104,124.022
						 M177.768,127.422c0.073-0.029,0.146-0.043,0.22-0.043c0.205,0,0.382,0.089,0.484,0.234c0.132,0.117,0.189,0.279,0.189,0.439
						c0,0.367-0.279,0.646-0.615,0.659c-0.014,0.015-0.043,0.015-0.059,0.015c-0.249,0-0.483-0.146-0.586-0.366
						c-0.059-0.088-0.088-0.19-0.088-0.308C177.313,127.76,177.504,127.511,177.768,127.422 M170.894,125.415
						c-0.059,0.014-0.118,0.014-0.177,0.014c-0.777,0-1.406-0.63-1.406-1.406c0-0.778,0.629-1.394,1.406-1.394
						s1.407,0.615,1.407,1.394c0,0.454-0.205,0.85-0.542,1.113C171.391,125.282,171.156,125.385,170.894,125.415 M172.826,128.36
						c-0.1,0.22-0.336,0.366-0.584,0.366c-0.016,0-0.046,0-0.06-0.015c-0.338-0.014-0.616-0.292-0.616-0.659
						c0-0.16,0.06-0.322,0.191-0.439c0.103-0.146,0.278-0.234,0.484-0.234c0.072,0,0.146,0.014,0.219,0.043
						c0.266,0.089,0.454,0.338,0.454,0.631C172.915,128.17,172.887,128.272,172.826,128.36 M165.264,131.044
						c-0.029,0.264-0.132,0.497-0.279,0.688c-0.263,0.337-0.658,0.542-1.112,0.542c-0.777,0-1.408-0.631-1.408-1.407
						s0.631-1.407,1.408-1.407c0.776,0,1.407,0.631,1.407,1.407C165.279,130.927,165.279,130.984,165.264,131.044 M168.211,132.979
						c-0.088,0.058-0.191,0.089-0.309,0.089c-0.278,0-0.527-0.191-0.615-0.44v-0.016c-0.029-0.073-0.045-0.131-0.045-0.219
						c0-0.191,0.088-0.382,0.219-0.485c0.119-0.116,0.266-0.189,0.441-0.189c0.367,0,0.646,0.278,0.658,0.615
						c0.017,0.015,0.017,0.045,0.017,0.06C168.577,132.656,168.43,132.876,168.211,132.979 M163.872,141.069
						c-0.777,0-1.408-0.63-1.408-1.407c0-0.776,0.631-1.407,1.408-1.407c0.454,0,0.85,0.206,1.112,0.543
						c0.147,0.191,0.25,0.426,0.279,0.688c0.016,0.059,0.016,0.117,0.016,0.176C165.279,140.439,164.648,141.069,163.872,141.069
						 M168.561,138.196c-0.013,0.338-0.291,0.616-0.658,0.616c-0.176,0-0.322-0.073-0.441-0.189
						c-0.131-0.104-0.219-0.295-0.219-0.485c0-0.088,0.016-0.146,0.045-0.219v-0.016c0.088-0.249,0.337-0.439,0.615-0.439
						c0.117,0,0.221,0.029,0.309,0.087c0.219,0.104,0.366,0.323,0.366,0.587C168.577,138.153,168.577,138.183,168.561,138.196
						 M172.124,146.508c0,0.777-0.63,1.394-1.407,1.394s-1.406-0.616-1.406-1.394c0-0.776,0.629-1.407,1.406-1.407
						c0.059,0,0.118,0,0.177,0.016c0.263,0.029,0.497,0.131,0.688,0.278C171.919,145.657,172.124,146.054,172.124,146.508
						 M172.461,143.107c-0.072,0.03-0.146,0.043-0.219,0.043c-0.206,0-0.382-0.088-0.484-0.233c-0.132-0.117-0.191-0.279-0.191-0.44
						c0-0.366,0.278-0.644,0.616-0.658c0.014-0.015,0.044-0.015,0.06-0.015c0.248,0,0.484,0.146,0.584,0.366
						c0.061,0.088,0.089,0.189,0.089,0.307C172.915,142.771,172.727,143.019,172.461,143.107 M179.336,145.116
						c0.058-0.016,0.117-0.016,0.176-0.016c0.777,0,1.408,0.631,1.408,1.407c0,0.777-0.631,1.394-1.408,1.394
						c-0.776,0-1.407-0.616-1.407-1.394c0-0.454,0.206-0.851,0.543-1.113C178.838,145.247,179.072,145.146,179.336,145.116
						 M177.401,142.17c0.103-0.221,0.337-0.366,0.586-0.366c0.016,0,0.045,0,0.059,0.015c0.336,0.015,0.615,0.292,0.615,0.658
						c0,0.161-0.058,0.323-0.189,0.44c-0.103,0.146-0.279,0.233-0.484,0.233c-0.073,0-0.146-0.013-0.22-0.043
						c-0.264-0.089-0.454-0.337-0.454-0.631C177.313,142.359,177.343,142.258,177.401,142.17 M182.766,138.623
						c-0.117,0.116-0.263,0.189-0.439,0.189c-0.366,0-0.644-0.278-0.659-0.616c-0.015-0.014-0.015-0.043-0.015-0.059
						c0-0.264,0.146-0.483,0.366-0.587c0.087-0.058,0.19-0.087,0.308-0.087c0.278,0,0.527,0.19,0.615,0.439v0.016
						c0.029,0.073,0.045,0.131,0.045,0.219C182.986,138.328,182.898,138.519,182.766,138.623 M186.357,141.069
						c-0.777,0-1.408-0.63-1.408-1.407c0-0.059,0-0.117,0.016-0.176c0.029-0.263,0.132-0.497,0.278-0.688
						c0.264-0.337,0.66-0.543,1.114-0.543c0.777,0,1.407,0.631,1.407,1.407C187.765,140.439,187.135,141.069,186.357,141.069"/>
				</g>
				<rect x="174.883" y="-39.5" style="fill:#F0F0F0;" width="0.516" height="147.731"/>
			</g>
		</g>
		<g>
			<radialGradient id="SVGID_2_" cx="59.1616" cy="67.0605" r="29.3176" gradientUnits="userSpaceOnUse">
				<stop  offset="0" style="stop-color:#707070"/>
				<stop  offset="0.0617" style="stop-color:#7E7E7E;stop-opacity:0.9383"/>
				<stop  offset="0.2804" style="stop-color:#ACACAC;stop-opacity:0.7196"/>
				<stop  offset="0.49" style="stop-color:#D0D0D0;stop-opacity:0.51"/>
				<stop  offset="0.6852" style="stop-color:#EAEAEA;stop-opacity:0.3148"/>
				<stop  offset="0.8609" style="stop-color:#FAFAFA;stop-opacity:0.1391"/>
				<stop  offset="1" style="stop-color:#FFFFFF;stop-opacity:0"/>
			</radialGradient>
			<circle style="fill:url(#SVGID_2_);" cx="59.162" cy="67.061" r="29.318"/>
			<g>
				<g>
					<g>
						<path style="fill:#F0F0F0;" d="M68.9,43.575c0,0.175-2.228,0.317-4.976,0.317s-4.976-0.143-4.976-0.317v-1.682
							c0-0.175,2.228-0.317,4.976-0.317s4.976,0.143,4.976,0.317V43.575z"/>
						<ellipse style="fill:#F0F0F0;" cx="63.925" cy="41.894" rx="4.976" ry="0.317"/>
					</g>
					<g>
						<path style="fill:#F0F0F0;" d="M68.324,41.724c0,0.176-1.97,0.317-4.399,0.317s-4.399-0.142-4.399-0.317v-1.269
							c0-0.176,1.97-0.317,4.399-0.317s4.399,0.142,4.399,0.317V41.724z"/>
						<ellipse style="fill:#F0F0F0;" cx="63.925" cy="40.455" rx="4.399" ry="0.316"/>
					</g>
					<g>
						<path style="fill:#F0F0F0;" d="M67.663,40.369c0,0.149-1.673,0.271-3.738,0.271s-3.738-0.122-3.738-0.271v-0.853
							c0-0.15,1.673-0.272,3.738-0.272s3.738,0.122,3.738,0.272V40.369z"/>
						<ellipse style="fill:#F0F0F0;" cx="63.925" cy="39.517" rx="3.738" ry="0.271"/>
					</g>
					<g>
						<path style="fill:#F0F0F0;" d="M63.924,39.659c-1.163,0-2.109-0.947-2.109-2.111s0.946-2.111,2.109-2.111
							c1.164,0,2.111,0.947,2.111,2.111S65.088,39.659,63.924,39.659z M63.924,36.065c-0.816,0-1.481,0.665-1.481,1.482
							s0.665,1.482,1.481,1.482c0.818,0,1.483-0.665,1.483-1.482S64.742,36.065,63.924,36.065z"/>
					</g>
				</g>
				<circle style="fill:#D41E1E;" cx="63.925" cy="63" r="20.244"/>
				<circle style="fill:#F0F0F0;" cx="63.925" cy="63" r="18.936"/>
				<circle style="fill:#D41E1E;" cx="63.925" cy="63" r="16.004"/>
				<g>
					<path style="fill:#F0F0F0;" d="M75.168,65.259c-0.764,0-1.437,0.409-1.803,1.011l-0.852-0.323
						c0.016-0.028,0.016-0.044,0.016-0.073c0-0.776-0.614-1.407-1.393-1.407c-0.439,0-0.822,0.205-1.084,0.514l-5.117-1.979
						l5.117-1.98c0.262,0.309,0.645,0.514,1.084,0.514c0.778,0,1.393-0.63,1.393-1.406c0-0.029,0-0.045-0.016-0.074l0.852-0.322
						c0.366,0.601,1.039,1.012,1.803,1.012c1.173,0,2.14-0.968,2.14-2.141c0-1.172-0.967-2.141-2.14-2.141
						c-1.187,0-2.141,0.969-2.141,2.141c0,0.161,0.016,0.308,0.06,0.455l-0.776,0.293c-0.25-0.382-0.675-0.631-1.174-0.631
						c-0.776,0-1.406,0.631-1.406,1.408c0,0.072,0,0.146,0.029,0.219l-5.205,2.023l2.023-5.204c0.073,0.029,0.146,0.029,0.22,0.029
						c0.777,0,1.406-0.631,1.406-1.407c0-0.497-0.247-0.924-0.629-1.187l0.293-0.763c0.146,0.044,0.292,0.058,0.454,0.058
						c1.172,0,2.141-0.951,2.141-2.139c0-1.174-0.969-2.127-2.141-2.127c-1.173,0-2.141,0.953-2.141,2.127
						c0,0.762,0.411,1.437,1.011,1.803l-0.321,0.836c-0.028-0.015-0.045-0.015-0.073-0.015c-0.776,0-1.407,0.629-1.407,1.406
						c0,0.44,0.205,0.821,0.514,1.085l-1.979,5.116l-1.98-5.116c0.309-0.264,0.514-0.645,0.514-1.085
						c0-0.777-0.631-1.406-1.406-1.406c-0.029,0-0.046,0-0.073,0.015l-0.324-0.836c0.603-0.366,1.013-1.041,1.013-1.803
						c0-1.174-0.968-2.127-2.141-2.127s-2.14,0.953-2.14,2.127c0,1.188,0.967,2.139,2.14,2.139c0.162,0,0.309-0.014,0.455-0.058
						l0.293,0.763c-0.383,0.263-0.63,0.689-0.63,1.187c0,0.776,0.63,1.407,1.407,1.407c0.072,0,0.146,0,0.219-0.029l2.021,5.204
						l-5.202-2.023c0.03-0.073,0.03-0.146,0.03-0.219c0-0.777-0.632-1.408-1.408-1.408c-0.497,0-0.924,0.249-1.174,0.631
						l-0.775-0.293c0.044-0.147,0.059-0.294,0.059-0.455c0-1.172-0.952-2.141-2.14-2.141c-1.173,0-2.141,0.969-2.141,2.141
						c0,1.173,0.968,2.141,2.141,2.141c0.763,0,1.436-0.411,1.802-1.012l0.851,0.322c-0.015,0.029-0.015,0.045-0.015,0.074
						c0,0.776,0.615,1.406,1.393,1.406c0.439,0,0.82-0.205,1.085-0.514l5.116,1.98l-5.116,1.979
						c-0.265-0.309-0.646-0.514-1.085-0.514c-0.777,0-1.393,0.631-1.393,1.407c0,0.029,0,0.045,0.015,0.073l-0.851,0.323
						c-0.366-0.602-1.039-1.011-1.802-1.011c-1.173,0-2.141,0.967-2.141,2.139c0,1.173,0.968,2.142,2.141,2.142
						c1.188,0,2.14-0.969,2.14-2.142c0-0.16-0.015-0.307-0.059-0.454l0.775-0.293c0.25,0.381,0.677,0.63,1.174,0.63
						c0.776,0,1.408-0.63,1.408-1.407c0-0.072,0-0.146-0.03-0.219l5.202-2.023l-2.021,5.204c-0.072-0.03-0.146-0.03-0.219-0.03
						c-0.777,0-1.407,0.631-1.407,1.407c0,0.499,0.247,0.924,0.63,1.188l-0.293,0.763c-0.146-0.044-0.293-0.059-0.455-0.059
						c-1.173,0-2.14,0.953-2.14,2.14c0,1.173,0.967,2.126,2.14,2.126s2.141-0.953,2.141-2.126c0-0.762-0.41-1.437-1.013-1.803
						l0.324-0.836c0.027,0.015,0.044,0.015,0.073,0.015c0.775,0,1.406-0.63,1.406-1.407c0-0.439-0.205-0.82-0.514-1.084l1.98-5.116
						l1.979,5.116c-0.309,0.264-0.514,0.645-0.514,1.084c0,0.777,0.631,1.407,1.407,1.407c0.028,0,0.045,0,0.073-0.015l0.321,0.836
						c-0.6,0.366-1.011,1.041-1.011,1.803c0,1.173,0.968,2.126,2.141,2.126c1.172,0,2.141-0.953,2.141-2.126
						c0-1.187-0.969-2.14-2.141-2.14c-0.162,0-0.308,0.015-0.454,0.059l-0.293-0.763c0.382-0.264,0.629-0.688,0.629-1.188
						c0-0.776-0.629-1.407-1.406-1.407c-0.073,0-0.146,0-0.22,0.03l-2.023-5.204l5.205,2.023c-0.029,0.073-0.029,0.146-0.029,0.219
						c0,0.777,0.63,1.407,1.406,1.407c0.499,0,0.924-0.249,1.174-0.63l0.776,0.293c-0.044,0.147-0.06,0.294-0.06,0.454
						c0,1.173,0.954,2.142,2.141,2.142c1.173,0,2.14-0.969,2.14-2.142C77.308,66.226,76.341,65.259,75.168,65.259 M75.168,57.195
						c0.777,0,1.407,0.631,1.407,1.407s-0.63,1.407-1.407,1.407c-0.454,0-0.851-0.205-1.114-0.542
						c-0.146-0.191-0.249-0.425-0.278-0.688c-0.016-0.06-0.016-0.117-0.016-0.177C73.76,57.826,74.391,57.195,75.168,57.195
						 M70.478,60.068c0.016-0.337,0.293-0.615,0.659-0.615c0.177,0,0.322,0.073,0.439,0.189c0.133,0.104,0.221,0.294,0.221,0.485
						c0,0.088-0.016,0.146-0.045,0.219v0.016c-0.088,0.249-0.337,0.44-0.615,0.44c-0.117,0-0.221-0.031-0.308-0.089
						c-0.22-0.103-0.366-0.322-0.366-0.586C70.463,60.113,70.463,60.083,70.478,60.068 M66.915,51.758
						c0-0.778,0.631-1.394,1.407-1.394c0.777,0,1.408,0.615,1.408,1.394c0,0.776-0.631,1.406-1.408,1.406
						c-0.059,0-0.118,0-0.176-0.014c-0.264-0.03-0.498-0.133-0.688-0.279C67.121,52.607,66.915,52.212,66.915,51.758 M66.578,55.157
						c0.073-0.029,0.146-0.043,0.22-0.043c0.205,0,0.382,0.089,0.484,0.234c0.132,0.117,0.189,0.279,0.189,0.439
						c0,0.367-0.279,0.646-0.615,0.659c-0.014,0.015-0.043,0.015-0.059,0.015c-0.249,0-0.483-0.146-0.586-0.366
						c-0.059-0.088-0.088-0.19-0.088-0.308C66.124,55.495,66.314,55.246,66.578,55.157 M59.704,53.15
						c-0.059,0.014-0.118,0.014-0.177,0.014c-0.777,0-1.406-0.63-1.406-1.406c0-0.778,0.629-1.394,1.406-1.394
						s1.407,0.615,1.407,1.394c0,0.454-0.205,0.85-0.542,1.113C60.201,53.018,59.967,53.12,59.704,53.15 M61.637,56.096
						c-0.1,0.22-0.336,0.366-0.584,0.366c-0.016,0-0.046,0-0.06-0.015c-0.338-0.014-0.616-0.292-0.616-0.659
						c0-0.16,0.06-0.322,0.191-0.439c0.103-0.146,0.278-0.234,0.484-0.234c0.072,0,0.146,0.014,0.219,0.043
						c0.266,0.089,0.454,0.338,0.454,0.631C61.726,55.905,61.697,56.008,61.637,56.096 M54.074,58.779
						c-0.029,0.264-0.132,0.497-0.279,0.688c-0.263,0.337-0.658,0.542-1.112,0.542c-0.777,0-1.408-0.631-1.408-1.407
						s0.631-1.407,1.408-1.407c0.776,0,1.407,0.631,1.407,1.407C54.09,58.662,54.09,58.72,54.074,58.779 M57.021,60.714
						c-0.088,0.058-0.191,0.089-0.309,0.089c-0.278,0-0.527-0.191-0.615-0.44v-0.016c-0.029-0.073-0.045-0.131-0.045-0.219
						c0-0.191,0.088-0.382,0.219-0.485c0.119-0.116,0.266-0.189,0.441-0.189c0.367,0,0.646,0.278,0.658,0.615
						c0.017,0.015,0.017,0.045,0.017,0.06C57.388,60.392,57.24,60.611,57.021,60.714 M52.683,68.805
						c-0.777,0-1.408-0.63-1.408-1.407c0-0.776,0.631-1.407,1.408-1.407c0.454,0,0.85,0.206,1.112,0.543
						c0.147,0.191,0.25,0.426,0.279,0.688c0.016,0.059,0.016,0.117,0.016,0.176C54.09,68.175,53.459,68.805,52.683,68.805
						 M57.371,65.932c-0.013,0.338-0.291,0.616-0.658,0.616c-0.176,0-0.322-0.073-0.441-0.189c-0.131-0.104-0.219-0.295-0.219-0.485
						c0-0.088,0.016-0.146,0.045-0.219v-0.016c0.088-0.249,0.337-0.439,0.615-0.439c0.117,0,0.221,0.029,0.309,0.087
						c0.219,0.104,0.366,0.323,0.366,0.587C57.388,65.889,57.388,65.918,57.371,65.932 M60.935,74.243
						c0,0.777-0.63,1.394-1.407,1.394s-1.406-0.616-1.406-1.394c0-0.776,0.629-1.407,1.406-1.407c0.059,0,0.118,0,0.177,0.016
						c0.263,0.029,0.497,0.131,0.688,0.278C60.729,73.393,60.935,73.789,60.935,74.243 M61.271,70.843
						c-0.072,0.03-0.146,0.043-0.219,0.043c-0.206,0-0.382-0.088-0.484-0.233c-0.132-0.117-0.191-0.279-0.191-0.44
						c0-0.366,0.278-0.644,0.616-0.658c0.014-0.015,0.044-0.015,0.06-0.015c0.248,0,0.484,0.146,0.584,0.366
						c0.061,0.088,0.089,0.189,0.089,0.307C61.726,70.506,61.537,70.754,61.271,70.843 M68.146,72.852
						c0.058-0.016,0.117-0.016,0.176-0.016c0.777,0,1.408,0.631,1.408,1.407c0,0.777-0.631,1.394-1.408,1.394
						c-0.776,0-1.407-0.616-1.407-1.394c0-0.454,0.206-0.851,0.543-1.113C67.648,72.982,67.883,72.881,68.146,72.852 M66.212,69.905
						c0.103-0.221,0.337-0.366,0.586-0.366c0.016,0,0.045,0,0.059,0.015c0.336,0.015,0.615,0.292,0.615,0.658
						c0,0.161-0.058,0.323-0.189,0.44c-0.103,0.146-0.279,0.233-0.484,0.233c-0.073,0-0.146-0.013-0.22-0.043
						c-0.264-0.089-0.454-0.337-0.454-0.631C66.124,70.095,66.153,69.993,66.212,69.905 M71.576,66.358
						c-0.117,0.116-0.263,0.189-0.439,0.189c-0.366,0-0.644-0.278-0.659-0.616c-0.015-0.014-0.015-0.043-0.015-0.059
						c0-0.264,0.146-0.483,0.366-0.587c0.087-0.058,0.19-0.087,0.308-0.087c0.278,0,0.527,0.19,0.615,0.439v0.016
						c0.029,0.073,0.045,0.131,0.045,0.219C71.797,66.063,71.709,66.254,71.576,66.358 M75.168,68.805
						c-0.777,0-1.408-0.63-1.408-1.407c0-0.059,0-0.117,0.016-0.176c0.029-0.263,0.132-0.497,0.278-0.688
						c0.264-0.337,0.66-0.543,1.114-0.543c0.777,0,1.407,0.631,1.407,1.407C76.575,68.175,75.945,68.805,75.168,68.805"/>
				</g>
				<rect x="63.693" y="-111.765" style="fill:#F0F0F0;" width="0.516" height="147.731"/>
			</g>
		</g>
		<g>
			<radialGradient id="SVGID_3_" cx="136.2539" cy="49.9961" r="29.3176" gradientUnits="userSpaceOnUse">
				<stop  offset="0" style="stop-color:#707070"/>
				<stop  offset="0.0617" style="stop-color:#7E7E7E;stop-opacity:0.9383"/>
				<stop  offset="0.2804" style="stop-color:#ACACAC;stop-opacity:0.7196"/>
				<stop  offset="0.49" style="stop-color:#D0D0D0;stop-opacity:0.51"/>
				<stop  offset="0.6852" style="stop-color:#EAEAEA;stop-opacity:0.3148"/>
				<stop  offset="0.8609" style="stop-color:#FAFAFA;stop-opacity:0.1391"/>
				<stop  offset="1" style="stop-color:#FFFFFF;stop-opacity:0"/>
			</radialGradient>
			<circle style="fill:url(#SVGID_3_);" cx="136.253" cy="49.996" r="29.318"/>
			<g>
				<g>
					<g>
						<path style="fill:#F0F0F0;" d="M145.992,26.51c0,0.175-2.228,0.317-4.976,0.317s-4.976-0.142-4.976-0.317v-1.681
							c0-0.175,2.228-0.317,4.976-0.317s4.976,0.142,4.976,0.317V26.51z"/>
						<ellipse style="fill:#F0F0F0;" cx="141.017" cy="24.829" rx="4.976" ry="0.317"/>
					</g>
					<g>
						<path style="fill:#F0F0F0;" d="M145.416,24.659c0,0.175-1.97,0.317-4.399,0.317s-4.399-0.142-4.399-0.317v-1.269
							c0-0.176,1.97-0.318,4.399-0.318s4.399,0.142,4.399,0.318V24.659z"/>
						<ellipse style="fill:#F0F0F0;" cx="141.017" cy="23.391" rx="4.399" ry="0.316"/>
					</g>
					<g>
						<path style="fill:#F0F0F0;" d="M144.755,23.304c0,0.15-1.673,0.272-3.738,0.272c-2.064,0-3.738-0.122-3.738-0.272v-0.853
							c0-0.15,1.674-0.272,3.738-0.272c2.065,0,3.738,0.122,3.738,0.272V23.304z"/>
						<ellipse style="fill:#F0F0F0;" cx="141.017" cy="22.452" rx="3.738" ry="0.272"/>
					</g>
					<g>
						<path style="fill:#F0F0F0;" d="M141.016,22.595c-1.163,0-2.109-0.947-2.109-2.112c0-1.164,0.946-2.111,2.109-2.111
							c1.164,0,2.112,0.947,2.112,2.111C143.128,21.647,142.18,22.595,141.016,22.595z M141.016,19
							c-0.816,0-1.481,0.665-1.481,1.482c0,0.818,0.665,1.483,1.481,1.483c0.818,0,1.483-0.665,1.483-1.483
							C142.499,19.666,141.834,19,141.016,19z"/>
					</g>
				</g>
				<circle style="fill:#F0F0F0;" cx="141.017" cy="45.936" r="20.244"/>
				<circle style="fill:#D41E1E;" cx="141.017" cy="45.936" r="18.936"/>
				<circle style="fill:#F0F0F0;" cx="141.017" cy="45.936" r="16.004"/>
				<g>
					<path style="fill:#D41E1E;" d="M152.26,48.194c-0.764,0-1.437,0.409-1.803,1.01l-0.852-0.323
						c0.016-0.028,0.016-0.043,0.016-0.073c0-0.776-0.614-1.407-1.393-1.407c-0.439,0-0.822,0.205-1.084,0.514l-5.117-1.979
						l5.117-1.98c0.262,0.309,0.645,0.514,1.084,0.514c0.778,0,1.393-0.63,1.393-1.406c0-0.03,0-0.045-0.016-0.074l0.852-0.323
						c0.366,0.601,1.039,1.012,1.803,1.012c1.174,0,2.141-0.968,2.141-2.14s-0.967-2.141-2.141-2.141
						c-1.187,0-2.141,0.968-2.141,2.141c0,0.161,0.017,0.308,0.06,0.455l-0.776,0.293c-0.25-0.382-0.675-0.631-1.174-0.631
						c-0.776,0-1.406,0.631-1.406,1.408c0,0.072,0,0.146,0.029,0.219l-5.205,2.023l2.023-5.204c0.073,0.029,0.146,0.029,0.22,0.029
						c0.777,0,1.406-0.631,1.406-1.407c0-0.498-0.247-0.924-0.629-1.187l0.293-0.763c0.146,0.044,0.293,0.058,0.454,0.058
						c1.172,0,2.141-0.952,2.141-2.139c0-1.174-0.969-2.127-2.141-2.127c-1.173,0-2.141,0.953-2.141,2.127
						c0,0.762,0.41,1.437,1.011,1.803l-0.321,0.836c-0.028-0.015-0.044-0.015-0.073-0.015c-0.776,0-1.407,0.629-1.407,1.407
						c0,0.44,0.205,0.821,0.514,1.085l-1.979,5.116l-1.98-5.116c0.309-0.264,0.514-0.645,0.514-1.085
						c0-0.777-0.631-1.407-1.406-1.407c-0.029,0-0.046,0-0.073,0.015l-0.324-0.836c0.603-0.366,1.013-1.041,1.013-1.803
						c0-1.174-0.968-2.127-2.141-2.127s-2.14,0.953-2.14,2.127c0,1.187,0.967,2.139,2.14,2.139c0.162,0,0.309-0.014,0.455-0.058
						l0.293,0.763c-0.383,0.263-0.63,0.689-0.63,1.187c0,0.776,0.63,1.407,1.407,1.407c0.072,0,0.146,0,0.219-0.029l2.022,5.204
						l-5.203-2.023c0.029-0.073,0.029-0.146,0.029-0.219c0-0.777-0.631-1.408-1.407-1.408c-0.497,0-0.924,0.249-1.174,0.631
						l-0.775-0.293c0.044-0.147,0.059-0.293,0.059-0.455c0-1.172-0.952-2.141-2.14-2.141c-1.173,0-2.141,0.968-2.141,2.141
						s0.968,2.14,2.141,2.14c0.763,0,1.436-0.411,1.802-1.012l0.852,0.323c-0.016,0.029-0.016,0.044-0.016,0.074
						c0,0.776,0.615,1.406,1.393,1.406c0.439,0,0.82-0.205,1.085-0.514l5.116,1.98l-5.116,1.979
						c-0.265-0.309-0.646-0.514-1.085-0.514c-0.777,0-1.393,0.631-1.393,1.407c0,0.029,0,0.045,0.016,0.073l-0.852,0.323
						c-0.366-0.601-1.039-1.01-1.802-1.01c-1.173,0-2.141,0.967-2.141,2.139c0,1.173,0.968,2.141,2.141,2.141
						c1.188,0,2.14-0.968,2.14-2.141c0-0.161-0.015-0.307-0.059-0.455l0.775-0.292c0.25,0.38,0.677,0.63,1.174,0.63
						c0.776,0,1.407-0.63,1.407-1.407c0-0.073,0-0.146-0.029-0.219l5.203-2.023l-2.022,5.205c-0.072-0.03-0.146-0.03-0.219-0.03
						c-0.777,0-1.407,0.631-1.407,1.408c0,0.498,0.247,0.923,0.63,1.188l-0.293,0.762c-0.146-0.044-0.293-0.059-0.455-0.059
						c-1.173,0-2.14,0.953-2.14,2.139c0,1.173,0.967,2.126,2.14,2.126s2.141-0.953,2.141-2.126c0-0.762-0.41-1.437-1.013-1.803
						l0.324-0.835c0.027,0.014,0.044,0.014,0.073,0.014c0.775,0,1.406-0.629,1.406-1.406c0-0.44-0.205-0.821-0.514-1.084l1.98-5.116
						l1.979,5.116c-0.309,0.263-0.514,0.645-0.514,1.084c0,0.777,0.631,1.406,1.407,1.406c0.029,0,0.045,0,0.073-0.014l0.321,0.835
						c-0.601,0.366-1.011,1.041-1.011,1.803c0,1.173,0.968,2.126,2.141,2.126c1.172,0,2.141-0.953,2.141-2.126
						c0-1.187-0.969-2.139-2.141-2.139c-0.161,0-0.308,0.015-0.454,0.059l-0.293-0.762c0.382-0.265,0.629-0.689,0.629-1.188
						c0-0.777-0.629-1.408-1.406-1.408c-0.073,0-0.146,0-0.22,0.03l-2.023-5.205l5.205,2.023c-0.029,0.073-0.029,0.146-0.029,0.219
						c0,0.777,0.63,1.407,1.406,1.407c0.499,0,0.924-0.25,1.174-0.63l0.776,0.292c-0.043,0.147-0.06,0.294-0.06,0.455
						c0,1.173,0.954,2.141,2.141,2.141c1.174,0,2.141-0.968,2.141-2.141C154.4,49.161,153.434,48.194,152.26,48.194 M152.26,40.131
						c0.777,0,1.407,0.631,1.407,1.407s-0.63,1.407-1.407,1.407c-0.454,0-0.851-0.205-1.113-0.542
						c-0.147-0.191-0.25-0.425-0.278-0.688c-0.017-0.06-0.017-0.117-0.017-0.177C150.852,40.762,151.483,40.131,152.26,40.131
						 M147.569,43.004c0.016-0.337,0.293-0.615,0.659-0.615c0.177,0,0.323,0.073,0.439,0.189c0.133,0.104,0.221,0.294,0.221,0.485
						c0,0.087-0.016,0.146-0.045,0.219v0.015c-0.088,0.25-0.337,0.44-0.615,0.44c-0.117,0-0.221-0.031-0.308-0.089
						c-0.22-0.102-0.366-0.322-0.366-0.585C147.555,43.048,147.555,43.018,147.569,43.004 M144.007,34.693
						c0-0.778,0.631-1.394,1.407-1.394c0.777,0,1.408,0.615,1.408,1.394c0,0.776-0.631,1.406-1.408,1.406
						c-0.059,0-0.118,0-0.176-0.014c-0.264-0.03-0.498-0.132-0.688-0.279C144.213,35.543,144.007,35.147,144.007,34.693
						 M143.67,38.093c0.073-0.029,0.146-0.043,0.22-0.043c0.205,0,0.382,0.088,0.484,0.234c0.132,0.118,0.189,0.28,0.189,0.44
						c0,0.367-0.279,0.645-0.615,0.659c-0.014,0.015-0.043,0.015-0.059,0.015c-0.249,0-0.483-0.146-0.586-0.366
						c-0.059-0.088-0.088-0.19-0.088-0.308C143.216,38.43,143.406,38.181,143.67,38.093 M136.796,36.085
						c-0.059,0.014-0.118,0.014-0.177,0.014c-0.777,0-1.407-0.63-1.407-1.406c0-0.778,0.63-1.394,1.407-1.394
						s1.407,0.615,1.407,1.394c0,0.454-0.205,0.85-0.542,1.113C137.294,35.953,137.059,36.056,136.796,36.085 M138.729,39.031
						c-0.101,0.22-0.336,0.366-0.584,0.366c-0.016,0-0.046,0-0.06-0.015c-0.338-0.014-0.616-0.292-0.616-0.659
						c0-0.16,0.06-0.322,0.191-0.44c0.103-0.146,0.278-0.234,0.484-0.234c0.072,0,0.146,0.014,0.219,0.043
						c0.265,0.088,0.455,0.337,0.455,0.631C138.818,38.841,138.789,38.943,138.729,39.031 M131.166,41.715
						c-0.029,0.263-0.132,0.497-0.279,0.688c-0.262,0.337-0.658,0.542-1.112,0.542c-0.777,0-1.408-0.631-1.408-1.407
						s0.631-1.407,1.408-1.407c0.776,0,1.407,0.631,1.407,1.407C131.182,41.598,131.182,41.655,131.166,41.715 M134.113,43.649
						c-0.088,0.058-0.191,0.089-0.309,0.089c-0.278,0-0.527-0.191-0.615-0.44v-0.015c-0.029-0.073-0.045-0.131-0.045-0.219
						c0-0.191,0.088-0.382,0.219-0.485c0.119-0.116,0.266-0.189,0.441-0.189c0.367,0,0.646,0.278,0.658,0.615
						c0.017,0.014,0.017,0.044,0.017,0.06C134.479,43.327,134.332,43.547,134.113,43.649 M129.774,51.74
						c-0.777,0-1.408-0.63-1.408-1.407s0.631-1.407,1.408-1.407c0.454,0,0.851,0.206,1.112,0.543
						c0.147,0.191,0.25,0.425,0.279,0.688c0.016,0.059,0.016,0.117,0.016,0.176C131.182,51.11,130.551,51.74,129.774,51.74
						 M134.463,48.867c-0.013,0.337-0.291,0.616-0.658,0.616c-0.176,0-0.322-0.073-0.441-0.189
						c-0.131-0.104-0.219-0.294-0.219-0.485c0-0.088,0.016-0.146,0.045-0.219v-0.016c0.088-0.249,0.337-0.439,0.615-0.439
						c0.117,0,0.221,0.029,0.309,0.087c0.219,0.104,0.366,0.323,0.366,0.587C134.479,48.824,134.479,48.854,134.463,48.867
						 M138.026,57.178c0,0.777-0.63,1.394-1.407,1.394s-1.407-0.616-1.407-1.394c0-0.776,0.63-1.407,1.407-1.407
						c0.059,0,0.118,0,0.177,0.015c0.263,0.029,0.498,0.131,0.688,0.278C137.821,56.328,138.026,56.725,138.026,57.178
						 M138.363,53.778c-0.072,0.03-0.146,0.042-0.219,0.042c-0.206,0-0.382-0.087-0.484-0.233c-0.132-0.117-0.191-0.279-0.191-0.439
						c0-0.367,0.278-0.645,0.616-0.659c0.014-0.015,0.044-0.015,0.06-0.015c0.248,0,0.483,0.146,0.584,0.366
						c0.061,0.088,0.09,0.19,0.09,0.308C138.818,53.441,138.628,53.69,138.363,53.778 M145.238,55.787
						c0.058-0.015,0.117-0.015,0.176-0.015c0.777,0,1.408,0.63,1.408,1.407c0,0.777-0.631,1.394-1.408,1.394
						c-0.776,0-1.407-0.616-1.407-1.394c0-0.454,0.206-0.851,0.544-1.113C144.74,55.918,144.975,55.816,145.238,55.787
						 M143.304,52.84c0.103-0.22,0.337-0.366,0.586-0.366c0.016,0,0.045,0,0.059,0.015c0.336,0.014,0.615,0.292,0.615,0.659
						c0,0.16-0.058,0.322-0.189,0.439c-0.103,0.146-0.279,0.233-0.484,0.233c-0.073,0-0.146-0.012-0.22-0.042
						c-0.264-0.088-0.454-0.337-0.454-0.63C143.216,53.03,143.245,52.928,143.304,52.84 M148.668,49.293
						c-0.116,0.116-0.263,0.189-0.439,0.189c-0.366,0-0.644-0.278-0.659-0.616c-0.015-0.014-0.015-0.043-0.015-0.059
						c0-0.264,0.146-0.483,0.366-0.587c0.087-0.058,0.19-0.087,0.308-0.087c0.278,0,0.527,0.191,0.615,0.439v0.016
						c0.029,0.073,0.045,0.131,0.045,0.219C148.889,48.999,148.801,49.19,148.668,49.293 M152.26,51.74
						c-0.776,0-1.408-0.63-1.408-1.407c0-0.059,0-0.117,0.017-0.176c0.028-0.263,0.131-0.498,0.278-0.688
						c0.263-0.337,0.659-0.543,1.113-0.543c0.777,0,1.407,0.63,1.407,1.407S153.037,51.74,152.26,51.74"/>
				</g>
				<rect x="140.785" y="-39.5" style="fill:#F0F0F0;" width="0.516" height="58.402"/>
			</g>
		</g>
		<g>
			<radialGradient id="SVGID_4_" cx="38.3936" cy="161.1348" r="29.3179" gradientUnits="userSpaceOnUse">
				<stop  offset="0.094" style="stop-color:#707070"/>
				<stop  offset="0.1499" style="stop-color:#7E7E7E;stop-opacity:0.9383"/>
				<stop  offset="0.3481" style="stop-color:#ACACAC;stop-opacity:0.7196"/>
				<stop  offset="0.5379" style="stop-color:#D0D0D0;stop-opacity:0.51"/>
				<stop  offset="0.7148" style="stop-color:#EAEAEA;stop-opacity:0.3148"/>
				<stop  offset="0.874" style="stop-color:#FAFAFA;stop-opacity:0.1391"/>
				<stop  offset="1" style="stop-color:#FFFFFF;stop-opacity:0"/>
			</radialGradient>
			<circle style="fill:url(#SVGID_4_);" cx="38.393" cy="161.136" r="29.318"/>
			<g>
				<g>
					<g>
						<path style="fill:#F0F0F0;" d="M48.133,137.65c0,0.175-2.228,0.317-4.976,0.317s-4.976-0.143-4.976-0.317v-1.682
							c0-0.176,2.228-0.317,4.976-0.317s4.976,0.142,4.976,0.317V137.65z"/>
						<ellipse style="fill:#F0F0F0;" cx="43.157" cy="135.969" rx="4.976" ry="0.317"/>
					</g>
					<g>
						<path style="fill:#F0F0F0;" d="M47.557,135.799c0,0.175-1.97,0.316-4.399,0.316s-4.399-0.142-4.399-0.316v-1.269
							c0-0.176,1.97-0.317,4.399-0.317s4.399,0.142,4.399,0.317V135.799z"/>
						<ellipse style="fill:#F0F0F0;" cx="43.157" cy="134.53" rx="4.399" ry="0.316"/>
					</g>
					<g>
						<path style="fill:#F0F0F0;" d="M46.896,134.443c0,0.15-1.673,0.272-3.738,0.272c-2.064,0-3.738-0.122-3.738-0.272v-0.852
							c0-0.15,1.674-0.272,3.738-0.272c2.065,0,3.738,0.122,3.738,0.272V134.443z"/>
						<ellipse style="fill:#F0F0F0;" cx="43.157" cy="133.592" rx="3.738" ry="0.271"/>
					</g>
					<g>
						<path style="fill:#F0F0F0;" d="M43.156,133.734c-1.163,0-2.11-0.947-2.11-2.111s0.947-2.111,2.11-2.111
							c1.165,0,2.112,0.947,2.112,2.111S44.321,133.734,43.156,133.734z M43.156,130.141c-0.816,0-1.481,0.664-1.481,1.482
							c0,0.817,0.665,1.482,1.481,1.482c0.818,0,1.483-0.665,1.483-1.482C44.64,130.805,43.975,130.141,43.156,130.141z"/>
					</g>
				</g>
				<circle style="fill:#F0F0F0;" cx="43.157" cy="157.075" r="20.244"/>
				<circle style="fill:#D41E1E;" cx="43.157" cy="157.075" r="18.936"/>
				<circle style="fill:#F0F0F0;" cx="43.157" cy="157.075" r="16.004"/>
				<g>
					<path style="fill:#D41E1E;" d="M54.4,159.334c-0.763,0-1.437,0.409-1.803,1.01l-0.852-0.322
						c0.016-0.028,0.016-0.044,0.016-0.073c0-0.776-0.614-1.407-1.393-1.407c-0.439,0-0.822,0.205-1.084,0.514l-5.117-1.979
						l5.117-1.979c0.262,0.309,0.645,0.514,1.084,0.514c0.778,0,1.393-0.631,1.393-1.406c0-0.03,0-0.046-0.016-0.074l0.852-0.322
						c0.366,0.601,1.04,1.011,1.803,1.011c1.173,0,2.14-0.968,2.14-2.14c0-1.173-0.967-2.141-2.14-2.141
						c-1.188,0-2.141,0.968-2.141,2.141c0,0.161,0.017,0.308,0.06,0.454l-0.776,0.294c-0.25-0.382-0.675-0.631-1.174-0.631
						c-0.776,0-1.406,0.631-1.406,1.408c0,0.072,0,0.146,0.029,0.219l-5.205,2.022l2.023-5.203c0.073,0.029,0.147,0.029,0.22,0.029
						c0.777,0,1.406-0.632,1.406-1.407c0-0.497-0.247-0.924-0.629-1.187l0.293-0.764c0.146,0.045,0.293,0.059,0.454,0.059
						c1.172,0,2.141-0.952,2.141-2.139c0-1.174-0.969-2.127-2.141-2.127c-1.173,0-2.141,0.953-2.141,2.127
						c0,0.762,0.411,1.437,1.011,1.803l-0.321,0.836c-0.028-0.016-0.045-0.016-0.073-0.016c-0.776,0-1.407,0.63-1.407,1.407
						c0,0.44,0.205,0.82,0.514,1.085l-1.979,5.116l-1.98-5.116c0.309-0.265,0.514-0.645,0.514-1.085
						c0-0.777-0.631-1.407-1.406-1.407c-0.029,0-0.046,0-0.074,0.016l-0.323-0.836c0.603-0.366,1.013-1.041,1.013-1.803
						c0-1.174-0.968-2.127-2.141-2.127s-2.14,0.953-2.14,2.127c0,1.187,0.967,2.139,2.14,2.139c0.162,0,0.309-0.014,0.454-0.059
						l0.294,0.764c-0.383,0.263-0.63,0.689-0.63,1.187c0,0.775,0.63,1.407,1.407,1.407c0.072,0,0.146,0,0.219-0.029l2.022,5.203
						l-5.203-2.022c0.029-0.073,0.029-0.146,0.029-0.219c0-0.777-0.631-1.408-1.407-1.408c-0.498,0-0.923,0.249-1.174,0.631
						l-0.776-0.294c0.045-0.146,0.06-0.293,0.06-0.454c0-1.173-0.953-2.141-2.14-2.141c-1.173,0-2.141,0.968-2.141,2.141
						c0,1.172,0.968,2.14,2.141,2.14c0.762,0,1.436-0.41,1.802-1.011l0.851,0.322c-0.015,0.028-0.015,0.044-0.015,0.074
						c0,0.775,0.616,1.406,1.393,1.406c0.439,0,0.821-0.205,1.085-0.514l5.116,1.979l-5.116,1.979
						c-0.264-0.309-0.646-0.514-1.085-0.514c-0.776,0-1.393,0.631-1.393,1.407c0,0.029,0,0.045,0.015,0.073l-0.851,0.322
						c-0.366-0.601-1.04-1.01-1.802-1.01c-1.173,0-2.141,0.967-2.141,2.139c0,1.173,0.968,2.141,2.141,2.141
						c1.187,0,2.14-0.968,2.14-2.141c0-0.16-0.015-0.307-0.06-0.455l0.776-0.292c0.251,0.38,0.676,0.63,1.174,0.63
						c0.776,0,1.407-0.63,1.407-1.407c0-0.072,0-0.146-0.029-0.22l5.203-2.023l-2.022,5.205c-0.072-0.03-0.146-0.03-0.219-0.03
						c-0.777,0-1.407,0.631-1.407,1.407c0,0.498,0.247,0.923,0.63,1.188l-0.294,0.763c-0.146-0.044-0.292-0.059-0.454-0.059
						c-1.173,0-2.14,0.952-2.14,2.14c0,1.173,0.967,2.126,2.14,2.126s2.141-0.953,2.141-2.126c0-0.762-0.41-1.437-1.013-1.804
						l0.323-0.835c0.028,0.014,0.045,0.014,0.074,0.014c0.775,0,1.406-0.629,1.406-1.406c0-0.439-0.205-0.821-0.514-1.084
						l1.98-5.116l1.979,5.116c-0.309,0.263-0.514,0.645-0.514,1.084c0,0.777,0.631,1.406,1.407,1.406c0.028,0,0.045,0,0.073-0.014
						l0.321,0.835c-0.6,0.367-1.011,1.042-1.011,1.804c0,1.173,0.968,2.126,2.141,2.126c1.172,0,2.141-0.953,2.141-2.126
						c0-1.188-0.969-2.14-2.141-2.14c-0.161,0-0.309,0.015-0.454,0.059l-0.293-0.763c0.382-0.265,0.629-0.689,0.629-1.188
						c0-0.776-0.629-1.407-1.406-1.407c-0.072,0-0.146,0-0.22,0.03l-2.023-5.205l5.205,2.023c-0.029,0.073-0.029,0.147-0.029,0.22
						c0,0.777,0.63,1.407,1.406,1.407c0.499,0,0.924-0.25,1.174-0.63l0.776,0.292c-0.043,0.148-0.06,0.295-0.06,0.455
						c0,1.173,0.953,2.141,2.141,2.141c1.173,0,2.14-0.968,2.14-2.141C56.54,160.301,55.573,159.334,54.4,159.334 M54.4,151.271
						c0.777,0,1.407,0.631,1.407,1.407s-0.63,1.407-1.407,1.407c-0.454,0-0.851-0.205-1.114-0.542
						c-0.146-0.191-0.248-0.426-0.278-0.688c-0.016-0.06-0.016-0.117-0.016-0.177C52.992,151.901,53.624,151.271,54.4,151.271
						 M49.71,154.144c0.016-0.337,0.293-0.615,0.659-0.615c0.177,0,0.323,0.073,0.439,0.189c0.133,0.104,0.221,0.294,0.221,0.485
						c0,0.088-0.016,0.146-0.045,0.219v0.016c-0.088,0.249-0.337,0.439-0.615,0.439c-0.117,0-0.22-0.03-0.309-0.089
						c-0.219-0.102-0.365-0.322-0.365-0.585C49.695,154.188,49.695,154.157,49.71,154.144 M46.147,145.833
						c0-0.778,0.631-1.394,1.407-1.394c0.777,0,1.408,0.615,1.408,1.394c0,0.776-0.631,1.406-1.408,1.406
						c-0.059,0-0.118,0-0.176-0.015c-0.264-0.029-0.498-0.132-0.688-0.278C46.354,146.683,46.147,146.287,46.147,145.833
						 M45.811,149.232c0.073-0.029,0.147-0.043,0.22-0.043c0.205,0,0.382,0.089,0.484,0.234c0.132,0.117,0.189,0.279,0.189,0.439
						c0,0.366-0.279,0.646-0.614,0.659c-0.015,0.015-0.044,0.015-0.06,0.015c-0.249,0-0.483-0.146-0.586-0.366
						c-0.059-0.088-0.088-0.19-0.088-0.308C45.356,149.569,45.547,149.321,45.811,149.232 M38.937,147.225
						c-0.059,0.015-0.118,0.015-0.177,0.015c-0.777,0-1.407-0.63-1.407-1.406c0-0.778,0.63-1.394,1.407-1.394
						s1.407,0.615,1.407,1.394c0,0.454-0.205,0.85-0.542,1.113C39.435,147.093,39.199,147.195,38.937,147.225 M40.869,150.171
						c-0.101,0.22-0.336,0.366-0.584,0.366c-0.016,0-0.046,0-0.06-0.015c-0.338-0.014-0.616-0.293-0.616-0.659
						c0-0.16,0.061-0.322,0.191-0.439c0.103-0.146,0.278-0.234,0.484-0.234c0.072,0,0.146,0.014,0.219,0.043
						c0.265,0.089,0.454,0.337,0.454,0.631C40.958,149.98,40.93,150.083,40.869,150.171 M33.307,152.854
						c-0.03,0.263-0.132,0.497-0.279,0.688c-0.263,0.337-0.659,0.542-1.113,0.542c-0.777,0-1.408-0.631-1.408-1.407
						s0.631-1.407,1.408-1.407c0.776,0,1.407,0.631,1.407,1.407C33.322,152.737,33.322,152.795,33.307,152.854 M36.254,154.788
						c-0.088,0.059-0.191,0.089-0.309,0.089c-0.278,0-0.527-0.19-0.616-0.439v-0.016c-0.028-0.073-0.044-0.131-0.044-0.219
						c0-0.191,0.088-0.382,0.219-0.485c0.119-0.116,0.267-0.189,0.441-0.189c0.367,0,0.646,0.278,0.658,0.615
						c0.017,0.014,0.017,0.044,0.017,0.06C36.62,154.466,36.473,154.687,36.254,154.788 M31.915,162.88
						c-0.777,0-1.408-0.631-1.408-1.407s0.631-1.407,1.408-1.407c0.454,0,0.85,0.206,1.113,0.543
						c0.147,0.19,0.249,0.425,0.279,0.688c0.015,0.059,0.015,0.117,0.015,0.176C33.322,162.249,32.691,162.88,31.915,162.88
						 M36.604,160.007c-0.013,0.337-0.291,0.616-0.658,0.616c-0.175,0-0.322-0.073-0.441-0.19c-0.131-0.104-0.219-0.294-0.219-0.484
						c0-0.088,0.016-0.146,0.044-0.22v-0.016c0.089-0.248,0.338-0.438,0.616-0.438c0.117,0,0.221,0.029,0.309,0.087
						c0.219,0.104,0.366,0.322,0.366,0.587C36.62,159.963,36.62,159.993,36.604,160.007 M40.167,168.318
						c0,0.776-0.63,1.393-1.407,1.393s-1.407-0.616-1.407-1.393s0.63-1.407,1.407-1.407c0.059,0,0.118,0,0.177,0.016
						c0.263,0.028,0.498,0.131,0.688,0.277C39.962,167.468,40.167,167.864,40.167,168.318 M40.504,164.918
						c-0.072,0.03-0.146,0.043-0.219,0.043c-0.206,0-0.382-0.088-0.484-0.234c-0.131-0.117-0.191-0.279-0.191-0.439
						c0-0.366,0.278-0.645,0.616-0.659c0.014-0.015,0.044-0.015,0.06-0.015c0.248,0,0.483,0.146,0.584,0.366
						c0.061,0.088,0.089,0.19,0.089,0.308C40.958,164.58,40.769,164.829,40.504,164.918 M47.379,166.927
						c0.058-0.016,0.117-0.016,0.176-0.016c0.777,0,1.408,0.631,1.408,1.407s-0.631,1.393-1.408,1.393
						c-0.776,0-1.407-0.616-1.407-1.393c0-0.454,0.206-0.851,0.544-1.114C46.881,167.058,47.115,166.955,47.379,166.927
						 M45.444,163.979c0.103-0.22,0.337-0.366,0.586-0.366c0.016,0,0.045,0,0.06,0.015c0.335,0.015,0.614,0.293,0.614,0.659
						c0,0.16-0.058,0.322-0.189,0.439c-0.103,0.146-0.279,0.234-0.484,0.234c-0.072,0-0.146-0.013-0.22-0.043
						c-0.264-0.089-0.454-0.338-0.454-0.631C45.356,164.17,45.386,164.067,45.444,163.979 M50.809,160.433
						c-0.116,0.117-0.263,0.19-0.439,0.19c-0.366,0-0.644-0.279-0.659-0.616c-0.015-0.014-0.015-0.044-0.015-0.059
						c0-0.265,0.146-0.483,0.365-0.587c0.089-0.058,0.191-0.087,0.309-0.087c0.278,0,0.527,0.19,0.615,0.438v0.016
						c0.029,0.073,0.045,0.132,0.045,0.22C51.029,160.139,50.941,160.329,50.809,160.433 M54.4,162.88
						c-0.776,0-1.408-0.631-1.408-1.407c0-0.059,0-0.117,0.016-0.176c0.03-0.264,0.132-0.498,0.278-0.688
						c0.264-0.337,0.66-0.543,1.114-0.543c0.777,0,1.407,0.631,1.407,1.407S55.178,162.88,54.4,162.88"/>
				</g>
				<rect x="42.926" y="-54.5" style="fill:#F0F0F0;" width="0.516" height="184.542"/>
			</g>
		</g>
		<g>
			
				<radialGradient id="SVGID_5_" cx="150.21" cy="101.8174" r="40" gradientTransform="matrix(1.1913 0 0 1.6384 -79.3237 -29.4309)" gradientUnits="userSpaceOnUse">
				<stop  offset="0" style="stop-color:#707070;stop-opacity:0.5"/>
				<stop  offset="0.0617" style="stop-color:#7E7E7E;stop-opacity:0.4692"/>
				<stop  offset="0.2804" style="stop-color:#ACACAC;stop-opacity:0.3598"/>
				<stop  offset="0.49" style="stop-color:#D0D0D0;stop-opacity:0.255"/>
				<stop  offset="0.6852" style="stop-color:#EAEAEA;stop-opacity:0.1574"/>
				<stop  offset="0.8609" style="stop-color:#FAFAFA;stop-opacity:0.0695"/>
				<stop  offset="1" style="stop-color:#FFFFFF;stop-opacity:0"/>
			</radialGradient>
			<path style="fill:url(#SVGID_5_);" d="M147.278,137.391c0,60.097-21.335,108.817-47.653,108.817s-47.652-48.721-47.652-108.817
				c0-60.101,21.334-108.82,47.652-108.82S147.278,77.29,147.278,137.391z"/>
			<g>
				<g>
					<rect x="104.157" y="146.567" style="fill:#3C8D0D;" width="10.076" height="19.587"/>
					<path style="fill:#3C8D0D;" d="M69.456,151.121c17.28-11.383,27.811-24.311,39.741-43.58
						c11.45,18.728,22.175,30.24,39.738,43.58C118.048,154.181,99.309,154.143,69.456,151.121z"/>
					<path style="fill:#3C8D0D;" d="M75.816,127.731c14.518-9.558,23.359-20.418,33.381-36.603
						c9.618,15.729,18.623,25.4,33.376,36.603C116.631,130.302,100.892,130.271,75.816,127.731z"/>
					<path style="fill:#3C8D0D;" d="M84.433,105.675c10.769-7.093,17.329-15.151,24.765-27.158
						c7.137,11.672,13.818,18.848,24.766,27.158C114.71,107.581,103.035,107.558,84.433,105.675z"/>
					<polygon style="fill:#3C8D0D;" points="111.393,79.395 109.195,78.247 106.982,79.367 107.42,76.966 105.647,75.254 
						108.111,74.917 109.227,72.736 110.319,74.931 112.781,75.296 110.987,76.987 					"/>
				</g>
				<rect x="108.801" y="-28.5" style="fill:#3C8D0D;" width="0.848" height="103.097"/>
			</g>
		</g>
	</g>
</g>
<rect y="-1.25" style="fill:#3C8D0D;" width="208" height="1.5"/>
</svg>
